<svg width="7" height="21" viewBox="0 0 7 21" fill="none" xmlns="http://www.w3.org/2000/svg">
<path d="M6.29664 17.1524C6.29664 18.9038 4.88431 20.3287 3.14832 20.3287C1.41234 20.3287 0 18.9038 0 17.1524C0 15.4009 1.41234 13.976 3.14832 13.976C4.88431 13.976 6.29664 15.4009 6.29664 17.1524ZM0.364418 1.00052L0.899633 11.8002C0.92478 12.3073 1.33965 12.7055 1.84295 12.7055H4.45369C4.95699 12.7055 5.37186 12.3073 5.39701 11.8002L5.93222 1.00052C5.95918 0.456205 5.52908 0 4.98891 0H1.30773C0.767561 0 0.337461 0.456205 0.364418 1.00052Z" fill="#444444"/>
</svg>
