<svg width="18" height="20" viewBox="0 0 18 20" fill="none" xmlns="http://www.w3.org/2000/svg">
<g clip-path="url(#clip0_81_406)">
<path d="M2.45502 0C1.10092 0 0 1.12109 0 2.5V15C0 16.3789 1.10092 17.5 2.45502 17.5H6.22194V11.8047H4.19655V8.75H6.22194V7.43359C6.22194 4.03125 7.73331 2.45312 11.0169 2.45312C11.6383 2.45312 12.7124 2.57812 13.1535 2.70312V5.46875C12.9234 5.44531 12.5206 5.42969 12.0181 5.42969C10.407 5.42969 9.78555 6.05078 9.78555 7.66406V8.75H12.9924L12.44 11.8047H9.78172V17.5H14.7301C16.0842 17.5 17.1851 16.3789 17.1851 15V2.5C17.1851 1.12109 16.0842 0 14.7301 0H2.45502Z" fill="#444444"/>
</g>
<defs>
<clipPath id="clip0_81_406">
<rect width="17.1851" height="20" fill="white"/>
</clipPath>
</defs>
</svg>
