<svg width="21" height="21" viewBox="0 0 21 21" fill="none" xmlns="http://www.w3.org/2000/svg">
<path d="M10.0791 4.95234C7.21961 4.95234 4.91311 7.27938 4.91311 10.1644C4.91311 13.0494 7.21961 15.3764 10.0791 15.3764C12.9386 15.3764 15.2451 13.0494 15.2451 10.1644C15.2451 7.27938 12.9386 4.95234 10.0791 4.95234ZM10.0791 13.5529C8.23123 13.5529 6.72054 12.0333 6.72054 10.1644C6.72054 8.29548 8.22673 6.77587 10.0791 6.77587C11.9315 6.77587 13.4377 8.29548 13.4377 10.1644C13.4377 12.0333 11.927 13.5529 10.0791 13.5529ZM16.6614 4.73914C16.6614 5.41502 16.1219 5.95482 15.4565 5.95482C14.7865 5.95482 14.2515 5.41049 14.2515 4.73914C14.2515 4.06779 14.791 3.52345 15.4565 3.52345C16.1219 3.52345 16.6614 4.06779 16.6614 4.73914ZM20.0829 5.97297C20.0065 4.34449 19.6378 2.902 18.4553 1.71353C17.2774 0.525059 15.8476 0.153095 14.2335 0.0714443C12.57 -0.0238148 7.58379 -0.0238148 5.92023 0.0714443C4.31063 0.148559 2.88087 0.520523 1.6984 1.70899C0.515927 2.89746 0.151743 4.33996 0.0708135 5.96843C-0.0236045 7.64681 -0.0236045 12.6774 0.0708135 14.3558C0.147247 15.9842 0.515927 17.4267 1.6984 18.6152C2.88087 19.8037 4.30614 20.1756 5.92023 20.2573C7.58379 20.3525 12.57 20.3525 14.2335 20.2573C15.8476 20.1802 17.2774 19.8082 18.4553 18.6152C19.6333 17.4267 20.002 15.9842 20.0829 14.3558C20.1774 12.6774 20.1774 7.65134 20.0829 5.97297ZM17.9338 16.1566C17.5831 17.0457 16.9042 17.7307 16.0185 18.089C14.6921 18.6197 11.5448 18.4973 10.0791 18.4973C8.6134 18.4973 5.46163 18.6152 4.13978 18.089C3.25855 17.7352 2.57963 17.0502 2.22444 16.1566C1.6984 14.8185 1.81979 11.6431 1.81979 10.1644C1.81979 8.68558 1.7029 5.50575 2.22444 4.17212C2.57514 3.28303 3.25405 2.59808 4.13978 2.23972C5.46613 1.70899 8.6134 1.83147 10.0791 1.83147C11.5448 1.83147 14.6966 1.71353 16.0185 2.23972C16.8997 2.59354 17.5786 3.2785 17.9338 4.17212C18.4598 5.51028 18.3384 8.68558 18.3384 10.1644C18.3384 11.6431 18.4598 14.823 17.9338 16.1566Z" fill="#444444"/>
</svg>
