<svg width="16" height="21" viewBox="0 0 16 21" fill="none" xmlns="http://www.w3.org/2000/svg">
<path d="M8.23559 0C4.09357 0 0 2.78594 0 7.29477C0 10.1622 1.59867 11.7914 2.56757 11.7914C2.96724 11.7914 3.19735 10.6672 3.19735 10.3495C3.19735 9.97074 2.24057 9.16428 2.24057 7.58803C2.24057 4.31332 4.71124 1.9917 7.90859 1.9917C10.6578 1.9917 12.6925 3.56796 12.6925 6.46387C12.6925 8.62665 11.8326 12.6834 9.04704 12.6834C8.04181 12.6834 7.18192 11.9502 7.18192 10.8994C7.18192 9.35979 8.2477 7.86907 8.2477 6.28059C8.2477 3.58425 4.45691 4.07302 4.45691 7.33143C4.45691 8.01569 4.54169 8.77327 4.84447 9.39645C4.28735 11.8158 3.1489 15.4204 3.1489 17.9131C3.1489 18.6829 3.2579 19.4405 3.33057 20.2103C3.46783 20.3651 3.3992 20.3488 3.60913 20.2714C5.6438 17.461 5.57114 16.9112 6.49158 13.2332C6.98814 14.1863 8.27193 14.6995 9.28926 14.6995C13.5766 14.6995 15.5023 10.4839 15.5023 6.68382C15.5023 2.63931 12.0385 0 8.23559 0Z" fill="#444444"/>
</svg>
